<svg width="22" height="26" viewBox="0 0 22 26" fill="none" xmlns="http://www.w3.org/2000/svg">
<path d="M14.1738 11.0137C14.4342 11.2741 14.5645 11.5996 14.5645 11.9902C14.5645 12.3809 14.4342 12.7227 14.1738 13.0156C13.946 13.276 13.653 13.4062 13.2949 13.4062C13.0671 13.4062 12.8555 13.3411 12.6602 13.2109C12.4648 13.0807 12.3021 12.918 12.1719 12.7227C12.0742 12.4948 12.0254 12.2507 12.0254 11.9902C12.0254 11.7949 12.0579 11.6159 12.123 11.4531C12.1882 11.2904 12.2695 11.1439 12.3672 11.0137C12.4974 10.8835 12.6439 10.7858 12.8066 10.7207C12.9694 10.6556 13.1322 10.623 13.2949 10.623C13.653 10.623 13.946 10.7533 14.1738 11.0137ZM7.82617 11.0137C8.08659 10.7533 8.39583 10.623 8.75391 10.623C9.11198 10.623 9.40495 10.7533 9.63281 11.0137C9.89323 11.2741 10.0234 11.5996 10.0234 11.9902C10.0234 12.3809 9.89323 12.7227 9.63281 13.0156C9.40495 13.276 9.11198 13.4062 8.75391 13.4062C8.39583 13.4062 8.08659 13.276 7.82617 13.0156C7.59831 12.7227 7.48438 12.3809 7.48438 11.9902C7.48438 11.5996 7.59831 11.2741 7.82617 11.0137ZM21.9375 2.71289V25.125C20.0495 23.4648 18.1126 21.707 16.127 19.8516L16.8105 22.1953H2.60156C1.91797 22.1953 1.31576 21.9512 0.794922 21.4629C0.306641 20.9421 0.0625 20.3236 0.0625 19.6074V2.71289C0.0625 1.99674 0.306641 1.39453 0.794922 0.90625C1.31576 0.385417 1.91797 0.125 2.60156 0.125H19.3984C20.082 0.125 20.668 0.385417 21.1562 0.90625C21.6771 1.39453 21.9375 1.99674 21.9375 2.71289ZM18.373 14.5293C18.373 13.3574 18.2266 12.1693 17.9336 10.9648C17.6406 9.72786 17.3314 8.80013 17.0059 8.18164L16.5664 7.25391C16.2409 6.99349 15.8828 6.7819 15.4922 6.61914C15.1341 6.42383 14.8086 6.29362 14.5156 6.22852C14.2552 6.13086 14.0111 6.06576 13.7832 6.0332C13.5553 5.9681 13.3763 5.93555 13.2461 5.93555H13.0508L12.9043 6.13086C13.5228 6.32617 14.0924 6.57031 14.6133 6.86328C15.1341 7.1237 15.4922 7.33529 15.6875 7.49805L15.9805 7.74219C14.5482 6.92839 12.9857 6.50521 11.293 6.47266C9.60026 6.4401 8.05404 6.73307 6.6543 7.35156L5.92188 7.74219C6.60547 7.09115 7.69596 6.53776 9.19336 6.08203L9.0957 5.93555C7.95638 5.93555 6.78451 6.375 5.58008 7.25391C5.44987 7.51432 5.28711 7.85612 5.0918 8.2793C4.89648 8.70247 4.61979 9.5651 4.26172 10.8672C3.9362 12.1367 3.77344 13.3574 3.77344 14.5293C3.83854 14.6921 3.95247 14.8711 4.11523 15.0664C4.31055 15.2617 4.73372 15.5384 5.38477 15.8965C6.03581 16.2546 6.76823 16.4336 7.58203 16.4336C7.90755 16.0755 8.18424 15.7337 8.41211 15.4082C7.95638 15.278 7.5332 15.099 7.14258 14.8711C6.78451 14.6107 6.54036 14.3828 6.41016 14.1875L6.21484 13.9434C6.27995 13.9759 6.34505 14.0247 6.41016 14.0898C6.50781 14.1224 6.58919 14.1549 6.6543 14.1875C6.7194 14.2201 6.75195 14.2363 6.75195 14.2363C7.85872 14.8548 9.07943 15.2292 10.4141 15.3594C11.7812 15.457 13.1647 15.2292 14.5645 14.6758C15.0527 14.513 15.5247 14.2689 15.9805 13.9434C15.5573 14.627 14.8086 15.1315 13.7344 15.457L14.5645 16.4336C15.0853 16.4336 15.5573 16.3685 15.9805 16.2383C16.4362 16.0755 16.7943 15.9128 17.0547 15.75C17.3477 15.5547 17.5918 15.3757 17.7871 15.2129C18.015 15.0176 18.1615 14.8548 18.2266 14.7246L18.373 14.5293Z" fill="#120031"/>
</svg>
