<svg width="25" height="25" viewBox="0 0 25 25" fill="none" xmlns="http://www.w3.org/2000/svg">
<path d="M8.49609 19.5098C8.49609 19.64 8.41471 19.7051 8.25195 19.7051C8.05664 19.7376 7.95898 19.6725 7.95898 19.5098C7.95898 19.4121 8.04036 19.3633 8.20312 19.3633C8.39844 19.3307 8.49609 19.3796 8.49609 19.5098ZM7.17773 19.5586C6.98242 19.526 6.90104 19.4447 6.93359 19.3145C6.9987 19.1842 7.11263 19.1517 7.27539 19.2168C7.43815 19.2493 7.50326 19.3307 7.4707 19.4609C7.43815 19.5911 7.34049 19.6237 7.17773 19.5586ZM9.13086 19.2168C9.29362 19.2168 9.375 19.2656 9.375 19.3633C9.40755 19.4609 9.34245 19.5423 9.17969 19.6074C9.01693 19.64 8.91927 19.5911 8.88672 19.4609C8.88672 19.3307 8.9681 19.2493 9.13086 19.2168ZM12.3535 0.515625C14.5671 0.515625 16.6178 1.03646 18.5059 2.07812C20.3939 3.11979 21.875 4.55208 22.9492 6.375C24.056 8.19792 24.6094 10.2161 24.6094 12.4297C24.6094 15.1315 23.8444 17.5566 22.3145 19.7051C20.8171 21.821 18.8477 23.2858 16.4062 24.0996C16.1458 24.1647 15.9342 24.1322 15.7715 24.002C15.6413 23.8717 15.5762 23.709 15.5762 23.5137C15.5762 23.4811 15.5762 22.9603 15.5762 21.9512C15.5762 20.9095 15.5762 20.0632 15.5762 19.4121C15.5762 18.3704 15.2995 17.6217 14.7461 17.166C15.4622 17.0684 16.0156 16.987 16.4062 16.9219C16.7969 16.8568 17.2852 16.7103 17.8711 16.4824C18.457 16.2546 18.8965 15.9616 19.1895 15.6035C19.515 15.2454 19.7917 14.7409 20.0195 14.0898C20.2474 13.4388 20.3613 12.6576 20.3613 11.7461C20.3613 11.1276 20.2637 10.623 20.0684 10.2324C19.873 9.8418 19.5475 9.40234 19.0918 8.91406C19.4824 7.90495 19.4499 6.79818 18.9941 5.59375C18.6686 5.49609 18.2292 5.5612 17.6758 5.78906C17.1224 5.98438 16.6341 6.21224 16.2109 6.47266L15.625 6.91211C14.6159 6.61914 13.5742 6.47266 12.5 6.47266C11.4583 6.47266 10.4492 6.61914 9.47266 6.91211C9.3099 6.7819 9.08203 6.63542 8.78906 6.47266C8.49609 6.27734 8.04036 6.06576 7.42188 5.83789C6.83594 5.57747 6.39648 5.49609 6.10352 5.59375C5.61523 6.79818 5.56641 7.90495 5.95703 8.91406C5.20833 9.72786 4.83398 10.6719 4.83398 11.7461C4.83398 12.6576 4.94792 13.4388 5.17578 14.0898C5.40365 14.7409 5.66406 15.2454 5.95703 15.6035C6.25 15.9616 6.67318 16.2546 7.22656 16.4824C7.77995 16.7103 8.25195 16.873 8.64258 16.9707C9.06576 17.0358 9.61914 17.1009 10.3027 17.166C9.87956 17.5566 9.61914 18.11 9.52148 18.8262C9.19596 18.9564 8.85417 19.054 8.49609 19.1191C8.17057 19.1842 7.7474 19.1191 7.22656 18.9238C6.70573 18.7285 6.28255 18.3542 5.95703 17.8008C5.76172 17.4427 5.5013 17.166 5.17578 16.9707C4.88281 16.7428 4.6224 16.6126 4.39453 16.5801L4.10156 16.5312C3.38542 16.5312 3.35286 16.7754 4.00391 17.2637C4.23177 17.3939 4.45964 17.6055 4.6875 17.8984C4.91536 18.1914 5.07812 18.4518 5.17578 18.6797L5.37109 19.0703C5.5013 19.4609 5.72917 19.7865 6.05469 20.0469C6.38021 20.3073 6.73828 20.4701 7.12891 20.5352C7.51953 20.6003 7.89388 20.6328 8.25195 20.6328C8.61003 20.6328 8.90299 20.6165 9.13086 20.584L9.47266 20.5352C9.47266 20.9258 9.47266 21.5117 9.47266 22.293C9.50521 23.0742 9.52148 23.4811 9.52148 23.5137C9.52148 23.709 9.4401 23.8717 9.27734 24.002C9.14714 24.1322 8.95182 24.1647 8.69141 24.0996C6.21745 23.2858 4.21549 21.821 2.68555 19.7051C1.1556 17.5566 0.390625 15.1315 0.390625 12.4297C0.390625 9.04427 1.52995 6.21224 3.80859 3.93359C6.11979 1.65495 8.9681 0.515625 12.3535 0.515625ZM5.12695 17.3613C5.19206 17.2962 5.27344 17.3125 5.37109 17.4102C5.46875 17.5078 5.48503 17.5892 5.41992 17.6543C5.35482 17.7194 5.27344 17.7031 5.17578 17.6055C5.07812 17.5078 5.06185 17.4264 5.12695 17.3613ZM4.58984 16.9707C4.65495 16.9056 4.73633 16.8893 4.83398 16.9219C4.93164 16.987 4.96419 17.0521 4.93164 17.1172C4.89909 17.2148 4.83398 17.2311 4.73633 17.166C4.60612 17.1009 4.55729 17.0358 4.58984 16.9707ZM6.20117 18.6797C6.26628 18.582 6.36393 18.5983 6.49414 18.7285C6.62435 18.8587 6.6569 18.9727 6.5918 19.0703C6.49414 19.168 6.38021 19.1517 6.25 19.0215C6.11979 18.8913 6.10352 18.7773 6.20117 18.6797ZM5.61523 17.9961C5.71289 17.8984 5.81055 17.931 5.9082 18.0938C6.00586 18.224 6.00586 18.3216 5.9082 18.3867C5.81055 18.4518 5.71289 18.4193 5.61523 18.2891C5.55013 18.1263 5.55013 18.0286 5.61523 17.9961Z" fill="#120031"/>
</svg>
