<svg width="25" height="21" viewBox="0 0 25 21" fill="none" xmlns="http://www.w3.org/2000/svg">
<path d="M22.4121 5.54688C22.4447 5.67708 22.4609 5.88867 22.4609 6.18164C22.4609 7.9069 22.1354 9.63216 21.4844 11.3574C20.8333 13.0501 19.9056 14.6126 18.7012 16.0449C17.5293 17.4447 15.9993 18.584 14.1113 19.4629C12.2233 20.3418 10.14 20.7812 7.86133 20.7812C4.99674 20.7812 2.3763 20.0163 0 18.4863C0.358073 18.5189 0.764974 18.5352 1.2207 18.5352C3.59701 18.5352 5.72917 17.8027 7.61719 16.3379C6.47786 16.3379 5.46875 16.0124 4.58984 15.3613C3.74349 14.6777 3.15755 13.8314 2.83203 12.8223C3.15755 12.8548 3.4668 12.8711 3.75977 12.8711C4.21549 12.8711 4.67122 12.8223 5.12695 12.7246C4.3457 12.5618 3.64583 12.2363 3.02734 11.748C2.40885 11.2598 1.92057 10.6738 1.5625 9.99023C1.20443 9.27409 1.02539 8.50911 1.02539 7.69531V7.59766C1.74154 8.02083 2.50651 8.2487 3.32031 8.28125C1.79036 7.23958 1.02539 5.80729 1.02539 3.98438C1.02539 3.07292 1.26953 2.21029 1.75781 1.39648C3.02734 2.99154 4.57357 4.26107 6.39648 5.20508C8.25195 6.14909 10.2214 6.66992 12.3047 6.76758C12.2396 6.37695 12.207 5.98633 12.207 5.5957C12.207 4.19596 12.6953 2.99154 13.6719 1.98242C14.681 0.973307 15.8854 0.46875 17.2852 0.46875C18.7826 0.46875 20.0358 1.00586 21.0449 2.08008C22.2168 1.85221 23.3073 1.44531 24.3164 0.859375C23.9258 2.0638 23.1771 3.00781 22.0703 3.69141C23.0469 3.5612 24.0234 3.28451 25 2.86133C24.2839 3.90299 23.4212 4.79818 22.4121 5.54688Z" fill="#120031"/>
</svg>
