<svg width="23" height="20" viewBox="0 0 23 20" fill="none" xmlns="http://www.w3.org/2000/svg">
<path d="M21.9375 1.95898L18.6172 17.4863C18.3568 18.5931 17.7546 18.8861 16.8105 18.3652L11.7812 14.6543L9.33984 16.998C9.01432 17.3236 8.67253 17.4863 8.31445 17.4863L8.70508 12.3594L18.0312 3.96094C18.2591 3.73307 18.2591 3.60286 18.0312 3.57031C17.8359 3.50521 17.6243 3.55404 17.3965 3.7168L5.87305 10.9922L0.892578 9.42969C0.339193 9.26693 0.078776 9.02279 0.111328 8.69727C0.14388 8.37174 0.485677 8.09505 1.13672 7.86719L20.5215 0.347656C21.0098 0.184896 21.4004 0.25 21.6934 0.542969C21.9863 0.803385 22.0677 1.27539 21.9375 1.95898Z" fill="#120031"/>
</svg>
