<svg width="27" height="19" viewBox="0 0 27 19" fill="none" xmlns="http://www.w3.org/2000/svg">
<path d="M26.293 3.17969C26.3906 3.57031 26.472 4.05859 26.5371 4.64453C26.6348 5.23047 26.6999 5.81641 26.7324 6.40234C26.765 6.95573 26.7812 7.47656 26.7812 7.96484C26.8138 8.45312 26.8301 8.86003 26.8301 9.18555V9.625C26.8301 12.5547 26.651 14.7194 26.293 16.1191C26.1302 16.6725 25.8372 17.1608 25.4141 17.584C24.9909 18.0072 24.4863 18.3001 23.9004 18.4629C23.2819 18.6257 22.11 18.7559 20.3848 18.8535C18.6595 18.9186 17.0807 18.9674 15.6484 19H13.5C7.93359 19 4.4668 18.821 3.09961 18.4629C1.83008 18.1048 1.03255 17.3236 0.707031 16.1191C0.544271 15.5007 0.414062 14.6543 0.316406 13.5801C0.251302 12.4733 0.202474 11.5456 0.169922 10.7969V9.625C0.169922 6.72786 0.348958 4.57943 0.707031 3.17969C0.869792 2.59375 1.16276 2.08919 1.58594 1.66602C2.00911 1.24284 2.51367 0.94987 3.09961 0.787109C3.7181 0.624349 4.88997 0.510417 6.61523 0.445312C8.34049 0.347656 9.91927 0.282552 11.3516 0.25H13.5C19.0664 0.25 22.5332 0.429036 23.9004 0.787109C24.4863 0.94987 24.9909 1.24284 25.4141 1.66602C25.8372 2.08919 26.1302 2.59375 26.293 3.17969ZM10.7656 13.6289L17.748 9.625L10.7656 5.66992V13.6289Z" fill="#120031"/>
</svg>
