<svg width="15" height="12" viewBox="0 0 15 12" fill="none" xmlns="http://www.w3.org/2000/svg">
<path d="M14.6684 4.94609L10.0421 0.319759C9.61571 -0.106586 8.90521 -0.106586 8.47887 0.319759C8.05252 0.746105 8.05252 1.45661 8.47887 1.88295L11.2105 4.63027H1.10524C0.489447 4.63027 0 5.11972 0 5.73551C0 6.3513 0.489447 6.84075 1.10524 6.84075H11.2105L8.47887 9.57231C8.05252 9.99866 8.05252 10.7092 8.47887 11.1355C8.69991 11.3566 8.98419 11.4671 9.26834 11.4671C9.5525 11.4671 9.83677 11.3566 10.0578 11.1355L14.6684 6.52496C14.8737 6.31966 15 6.03551 15 5.73548C15 5.43546 14.8894 5.1513 14.6684 4.94601L14.6684 4.94609Z" fill="white"/>
</svg>
